{
	"asset":{
		"generator":"Khronos glTF Blender I/O v3.5.30",
		"version":"2.0"
	},
	"scene":0,
	"scenes":[
		{
			"name":"Scene",
			"nodes":[
				0
			]
		}
	],
	"nodes":[
		{
			"mesh":0,
			"name":"Quad Sphere"
		}
	],
	"materials":[
		{
			"doubleSided":true,
			"name":"Material",
			"pbrMetallicRoughness":{
				"baseColorFactor":[
					0.800000011920929,
					0.800000011920929,
					0.800000011920929,
					1
				],
				"metallicFactor":0,
				"roughnessFactor":0.5
			}
		}
	],
	"meshes":[
		{
			"name":"Quad Sphere",
			"primitives":[
				{
					"attributes":{
						"POSITION":0,
						"NORMAL":1
					},
					"indices":2,
					"material":0
				}
			]
		}
	],
	"accessors":[
		{
			"bufferView":0,
			"componentType":5126,
			"count":28560,
			"max":[
				4.444645404815674,
				4.789549827575684,
				3.886362314224243
			],
			"min":[
				-3.3450422286987305,
				-1.876366376876831,
				-3.8206803798675537
			],
			"type":"VEC3"
		},
		{
			"bufferView":1,
			"componentType":5126,
			"count":28560,
			"type":"VEC3"
		},
		{
			"bufferView":2,
			"componentType":5123,
			"count":147456,
			"type":"SCALAR"
		}
	],
	"bufferViews":[
		{
			"buffer":0,
			"byteLength":342720,
			"byteOffset":0,
			"target":34962
		},
		{
			"buffer":0,
			"byteLength":342720,
			"byteOffset":342720,
			"target":34962
		},
		{
			"buffer":0,
			"byteLength":294912,
			"byteOffset":685440,
			"target":34963
		}
	],
	"buffers":[
		{
			"byteLength":980352,
			"uri":"data:application/octet-stream;base64,"
		}
	]
}
